<svg width="90" height="91" viewBox="0 0 90 91" fill="none" xmlns="http://www.w3.org/2000/svg">
<mask id="mask0_315_14" style="mask-type:alpha" maskUnits="userSpaceOnUse" x="0" y="0" width="90" height="91">
<path d="M89.5 45.5C89.5 70.358 69.5715 90.5 45 90.5C20.4285 90.5 0.5 70.358 0.5 45.5C0.5 20.642 20.4285 0.5 45 0.5C69.5715 0.5 89.5 20.642 89.5 45.5Z" fill="#C4C4C4" stroke="black"/>
</mask>
<g mask="url(#mask0_315_14)">
<rect x="-0.5" y="-0.5" width="91" height="92" fill="#B37DB3" stroke="black"/>
<path d="M41.75 27.9C45.1167 27.9 47.7833 28.4833 49.75 29.65C51.75 30.7833 53.1833 32.65 54.05 35.25C54.95 37.85 55.4 41.35 55.4 45.75C55.4 50.15 54.95 53.65 54.05 56.25C53.1833 58.85 51.75 60.7333 49.75 61.9C47.7833 63.0333 45.1167 63.6 41.75 63.6C39.55 63.6 37.7333 63.5167 36.3 63.35C34.9 63.1833 33.5 62.9167 32.1 62.55L32.5 60.05C33.8667 60.2833 35.2333 60.45 36.6 60.55C37.9667 60.6167 39.6833 60.65 41.75 60.65C44.3167 60.65 46.3333 60.1833 47.8 59.25C49.3 58.3167 50.3667 56.7667 51 54.6C51.6667 52.4333 52 49.4833 52 45.75C52 42.0167 51.6667 39.0667 51 36.9C50.3667 34.7333 49.3 33.1833 47.8 32.25C46.3333 31.3167 44.3167 30.85 41.75 30.85C40.45 30.85 39.3167 30.8667 38.35 30.9C37.3833 30.9333 36.4667 30.9833 35.6 31.05C34.7667 31.1167 33.8667 31.2167 32.9 31.35L32.45 28.85C33.3833 28.6167 34.2833 28.4333 35.15 28.3C36.05 28.1667 37.0167 28.0667 38.05 28C39.1167 27.9333 40.35 27.9 41.75 27.9ZM54.1 43.3V45.95L36.8 45.9V43.35L54.1 43.3Z" fill="white"/>
</g>
</svg>
