<svg width="90" height="90" viewBox="0 0 90 90" fill="none" xmlns="http://www.w3.org/2000/svg">
<mask id="mask0_315_14" style="mask-type:alpha" maskUnits="userSpaceOnUse" x="0" y="0" width="90" height="90">
<path d="M88.511 45C88.511 69.5819 68.8039 89.5 44.5055 89.5C20.2071 89.5 0.5 69.5819 0.5 45C0.5 20.4181 20.2071 0.5 44.5055 0.5C68.8039 0.5 88.511 20.4181 88.511 45Z" fill="#C4C4C4" stroke="black"/>
</mask>
<g mask="url(#mask0_315_14)">
<rect x="-0.5" y="-0.5" width="90.011" height="91" fill="#00897B" stroke="black"/>
<path d="M57.15 28.5L45.4 51H42.55L30.75 28.5H34.25L42.15 43.8C42.45 44.4 42.7333 45.0167 43 45.65C43.2667 46.2833 43.5333 46.9 43.8 47.5H44.15C44.3833 46.9 44.65 46.2833 44.95 45.65C45.25 45.0167 45.5333 44.4167 45.8 43.85L53.65 28.5H57.15ZM45.6 48.45V63H42.3V48.45H45.6Z" fill="white"/>
</g>
</svg>
