<svg width="90" height="90" viewBox="0 0 90 90" fill="none" xmlns="http://www.w3.org/2000/svg">
<mask id="mask0_315_14" style="mask-type:alpha" maskUnits="userSpaceOnUse" x="0" y="0" width="90" height="90">
<path d="M88.511 45C88.511 69.5819 68.8039 89.5 44.5055 89.5C20.2071 89.5 0.5 69.5819 0.5 45C0.5 20.4181 20.2071 0.5 44.5055 0.5C68.8039 0.5 88.511 20.4181 88.511 45Z" fill="#C4C4C4" stroke="black"/>
</mask>
<g mask="url(#mask0_315_14)">
<rect x="-0.5" y="-0.5" width="90.011" height="91" fill="#455A64" stroke="black"/>
<path d="M59.65 28.5C60.5833 28.5 61.05 28.9833 61.05 29.95L62.55 63H59.25L57.9 31.25H56.8L47.8 58.3C47.6 59.0333 47.1167 59.4 46.35 59.4H43.05C42.2833 59.4 41.7833 59.0333 41.55 58.3L32.6 31.25H31.5L30.2 63H26.9L28.3 29.95C28.3667 28.9833 28.8667 28.5 29.8 28.5H33.75C34.4833 28.5 34.95 28.8833 35.15 29.65L42.7 52.15C43 52.9167 43.25 53.7 43.45 54.5C43.6833 55.2667 43.9333 56.05 44.2 56.85H45.25C45.4833 56.05 45.7167 55.2667 45.95 54.5C46.1833 53.7 46.4333 52.8833 46.7 52.05L54.25 29.65C54.45 28.8833 54.9333 28.5 55.7 28.5H59.65Z" fill="white"/>
</g>
</svg>
