<svg width="90" height="90" viewBox="0 0 90 90" fill="none" xmlns="http://www.w3.org/2000/svg">
<mask id="mask0_315_14" style="mask-type:alpha" maskUnits="userSpaceOnUse" x="0" y="0" width="90" height="90">
<path d="M88.511 45C88.511 69.5819 68.8039 89.5 44.5055 89.5C20.2071 89.5 0.5 69.5819 0.5 45C0.5 20.4181 20.2071 0.5 44.5055 0.5C68.8039 0.5 88.511 20.4181 88.511 45Z" fill="#C4C4C4" stroke="black"/>
</mask>
<g mask="url(#mask0_315_14)">
<rect x="-0.5" y="-0.5" width="90.011" height="91" fill="#689F38" stroke="black"/>
<path d="M40.45 28.45C42.0833 28.45 43.7333 28.45 45.4 28.45C47.0667 28.45 48.7167 28.4833 50.35 28.55C52.0167 28.5833 53.6333 28.65 55.2 28.75L55.05 31.3H41C39.9 31.3 39.05 31.6 38.45 32.2C37.8833 32.8 37.6 33.6833 37.6 34.85V56.65C37.6 57.8167 37.8833 58.7167 38.45 59.35C39.05 59.95 39.9 60.25 41 60.25H55.05L55.2 62.75C53.6333 62.85 52.0167 62.9167 50.35 62.95C48.7167 62.9833 47.0667 63 45.4 63C43.7333 63.0333 42.0833 63.05 40.45 63.05C38.6167 63.05 37.1333 62.5333 36 61.5C34.9 60.4333 34.35 59.05 34.35 57.35V34.15C34.35 32.4167 34.9 31.0333 36 30C37.1333 28.9667 38.6167 28.45 40.45 28.45ZM35.2 43.35H53.05V46H35.2V43.35Z" fill="white"/>
</g>
</svg>
