<svg width="90" height="90" viewBox="0 0 90 90" fill="none" xmlns="http://www.w3.org/2000/svg">
<mask id="mask0_315_14" style="mask-type:alpha" maskUnits="userSpaceOnUse" x="0" y="0" width="90" height="90">
<path d="M88.511 45C88.511 69.5819 68.8039 89.5 44.5055 89.5C20.2071 89.5 0.5 69.5819 0.5 45C0.5 20.4181 20.2071 0.5 44.5055 0.5C68.8039 0.5 88.511 20.4181 88.511 45Z" fill="#C4C4C4" stroke="black"/>
</mask>
<g mask="url(#mask0_315_14)">
<rect x="-0.5" y="-0.5" width="90.011" height="91" fill="#0097A7" stroke="black"/>
<path d="M47.25 28.5C47.55 28.5 47.8167 28.5833 48.05 28.75C48.3167 28.9167 48.4833 29.15 48.55 29.45L60.1 63H56.7L47 33.9C46.8667 33.4333 46.7167 32.9667 46.55 32.5C46.3833 32 46.2333 31.5333 46.1 31.1H44.65C44.5167 31.5333 44.3667 32 44.2 32.5C44.0667 32.9667 43.9167 33.4333 43.75 33.9L34.05 63H30.65L42.2 29.45C42.3 29.15 42.4667 28.9167 42.7 28.75C42.9333 28.5833 43.2 28.5 43.5 28.5H47.25ZM54.1 48.7V51.55H36.6V48.7H54.1Z" fill="white"/>
</g>
</svg>
